<?xml version="1.0" encoding="UTF-8" standalone="no"?>
<!DOCTYPE svg PUBLIC "-//W3C//DTD SVG 1.1//EN"
 "http://www.w3.org/Graphics/SVG/1.1/DTD/svg11.dtd">
<!-- Generated by graphviz version 2.38.0 (20140413.2041)
 -->
<!-- Title: G Pages: 1 -->
<svg width="366pt" height="121pt"
 viewBox="0.00 0.00 366.40 121.00" xmlns="http://www.w3.org/2000/svg" xmlns:xlink="http://www.w3.org/1999/xlink">
<g id="graph0" class="graph" transform="scale(1 1) rotate(0) translate(173.1 44.5)">
<title>G</title>
<polygon fill="white" stroke="none" points="-173.1,76.5 -173.1,-44.5 193.3,-44.5 193.3,76.5 -173.1,76.5"/>
<!-- Red -->
<g id="node1" class="node"><title>Red</title>
<path fill="none" stroke="black" d="M-73.6,4C-73.6,4 30.4,4 30.4,4 36.4,4 42.4,-2 42.4,-8 42.4,-8 42.4,-28 42.4,-28 42.4,-34 36.4,-40 30.4,-40 30.4,-40 -73.6,-40 -73.6,-40 -79.6,-40 -85.6,-34 -85.6,-28 -85.6,-28 -85.6,-8 -85.6,-8 -85.6,-2 -79.6,4 -73.6,4"/>
<text text-anchor="middle" x="-21.6" y="-27.2" font-family="Times,serif" font-size="11.00">Write a Statement </text>
<text text-anchor="middle" x="-21.6" y="-15.2" font-family="Times,serif" font-size="11.00">you wish was true</text>
<text text-anchor="middle" x="-21.6" y="-3.2" font-family="Times,serif" font-size="11.00">but is not</text>
</g>
<!-- Green -->
<g id="node2" class="node"><title>Green</title>
<path fill="none" stroke="black" d="M96.3,-0C96.3,-0 177.3,-0 177.3,-0 183.3,-0 189.3,-6 189.3,-12 189.3,-12 189.3,-24 189.3,-24 189.3,-30 183.3,-36 177.3,-36 177.3,-36 96.3,-36 96.3,-36 90.3,-36 84.3,-30 84.3,-24 84.3,-24 84.3,-12 84.3,-12 84.3,-6 90.3,-0 96.3,-0"/>
<text text-anchor="middle" x="136.8" y="-21.2" font-family="Times,serif" font-size="11.00">Add code</text>
<text text-anchor="middle" x="136.8" y="-9.2" font-family="Times,serif" font-size="11.00">to make it true</text>
</g>
<!-- Red&#45;&gt;Green -->
<g id="edge1" class="edge"><title>Red&#45;&gt;Green</title>
<path fill="none" stroke="black" d="M42.8273,-18C53.1056,-18 63.728,-18 73.9686,-18"/>
<polygon fill="black" stroke="black" points="74.0551,-21.5001 84.0551,-18 74.0551,-14.5001 74.0551,-21.5001"/>
</g>
<!-- Refactor -->
<g id="node3" class="node"><title>Refactor</title>
<path fill="none" stroke="black" d="M29.4,72C29.4,72 71.4,72 71.4,72 77.4,72 83.4,66 83.4,60 83.4,60 83.4,48 83.4,48 83.4,42 77.4,36 71.4,36 71.4,36 29.4,36 29.4,36 23.4,36 17.4,42 17.4,48 17.4,48 17.4,60 17.4,60 17.4,66 23.4,72 29.4,72"/>
<text text-anchor="middle" x="50.4" y="56.8" font-family="Times,serif" font-size="11.00">Refactor</text>
</g>
<!-- Green&#45;&gt;Refactor -->
<g id="edge2" class="edge"><title>Green&#45;&gt;Refactor</title>
<path fill="none" stroke="black" d="M114.998,0.16864C104.356,9.0368 91.3964,19.8363 79.8862,29.4282"/>
<polygon fill="black" stroke="black" points="82.1183,32.1241 72.1954,35.8372 77.637,26.7465 82.1183,32.1241"/>
</g>
<!-- Refactor&#45;&gt;Red -->
<g id="edge3" class="edge"><title>Refactor&#45;&gt;Red</title>
<path fill="none" stroke="black" d="M32.2314,35.8314C24.7562,28.3562 15.9087,19.5087 7.569,11.169"/>
<polygon fill="black" stroke="black" points="5.01432,13.5641 0.418108,4.01811 9.96409,8.61432 5.01432,13.5641"/>
</g>
<!-- Begin -->
<g id="node4" class="node"><title>Begin</title>
</g>
<!-- Begin&#45;&gt;Red -->
<g id="edge4" class="edge"><title>Begin&#45;&gt;Red</title>
<path fill="none" stroke="black" d="M-162.04,-18C-152.355,-18 -124.337,-18 -95.8494,-18"/>
<polygon fill="black" stroke="black" points="-95.7826,-21.5001 -85.7827,-18 -95.7827,-14.5001 -95.7826,-21.5001"/>
</g>
</g>
</svg>
