<?xml version="1.0" encoding="UTF-8" standalone="no"?>
<!DOCTYPE svg PUBLIC "-//W3C//DTD SVG 1.1//EN"
 "http://www.w3.org/Graphics/SVG/1.1/DTD/svg11.dtd">
<!-- Generated by graphviz version 2.36.0 (20140111.2315)
 -->
<!-- Title: G Pages: 1 -->
<svg width="364pt" height="121pt"
 viewBox="0.00 0.00 364.40 121.00" xmlns="http://www.w3.org/2000/svg" xmlns:xlink="http://www.w3.org/1999/xlink">
<g id="graph0" class="graph" transform="scale(1 1) rotate(0) translate(4 117)">
<title>G</title>
<polygon fill="white" stroke="none" points="-4,4 -4,-117 360.4,-117 360.4,4 -4,4"/>
<!-- Red -->
<g id="node1" class="node"><title>Red</title>
<path fill="none" stroke="black" d="M97.5,-68.5C97.5,-68.5 197.5,-68.5 197.5,-68.5 203.5,-68.5 209.5,-74.5 209.5,-80.5 209.5,-80.5 209.5,-100.5 209.5,-100.5 209.5,-106.5 203.5,-112.5 197.5,-112.5 197.5,-112.5 97.5,-112.5 97.5,-112.5 91.5,-112.5 85.5,-106.5 85.5,-100.5 85.5,-100.5 85.5,-80.5 85.5,-80.5 85.5,-74.5 91.5,-68.5 97.5,-68.5"/>
<text text-anchor="middle" x="147.5" y="-99.7" font-family="Times,serif" font-size="11.00">Write a Statement </text>
<text text-anchor="middle" x="147.5" y="-87.7" font-family="Times,serif" font-size="11.00">you wish was true</text>
<text text-anchor="middle" x="147.5" y="-75.7" font-family="Times,serif" font-size="11.00">but is not</text>
</g>
<!-- Green -->
<g id="node2" class="node"><title>Green</title>
<path fill="none" stroke="black" d="M267.4,-72.5C267.4,-72.5 344.4,-72.5 344.4,-72.5 350.4,-72.5 356.4,-78.5 356.4,-84.5 356.4,-84.5 356.4,-96.5 356.4,-96.5 356.4,-102.5 350.4,-108.5 344.4,-108.5 344.4,-108.5 267.4,-108.5 267.4,-108.5 261.4,-108.5 255.4,-102.5 255.4,-96.5 255.4,-96.5 255.4,-84.5 255.4,-84.5 255.4,-78.5 261.4,-72.5 267.4,-72.5"/>
<text text-anchor="middle" x="305.9" y="-93.7" font-family="Times,serif" font-size="11.00">Add code</text>
<text text-anchor="middle" x="305.9" y="-81.7" font-family="Times,serif" font-size="11.00">to make it true</text>
</g>
<!-- Red&#45;&gt;Green -->
<g id="edge1" class="edge"><title>Red&#45;&gt;Green</title>
<path fill="none" stroke="black" d="M209.649,-90.5C221.314,-90.5 233.496,-90.5 245.118,-90.5"/>
<polygon fill="black" stroke="black" points="245.16,-94.0001 255.16,-90.5 245.16,-87.0001 245.16,-94.0001"/>
</g>
<!-- Refactor -->
<g id="node3" class="node"><title>Refactor</title>
<path fill="none" stroke="black" d="M199,-0.5C199,-0.5 240,-0.5 240,-0.5 246,-0.5 252,-6.5 252,-12.5 252,-12.5 252,-24.5 252,-24.5 252,-30.5 246,-36.5 240,-36.5 240,-36.5 199,-36.5 199,-36.5 193,-36.5 187,-30.5 187,-24.5 187,-24.5 187,-12.5 187,-12.5 187,-6.5 193,-0.5 199,-0.5"/>
<text text-anchor="middle" x="219.5" y="-15.7" font-family="Times,serif" font-size="11.00">Refactor</text>
</g>
<!-- Green&#45;&gt;Refactor -->
<g id="edge2" class="edge"><title>Green&#45;&gt;Refactor</title>
<path fill="none" stroke="black" d="M284.098,-72.3314C273.456,-63.4632 260.496,-52.6637 248.986,-43.0718"/>
<polygon fill="black" stroke="black" points="251.218,-40.3759 241.295,-36.6628 246.737,-45.7535 251.218,-40.3759"/>
</g>
<!-- Refactor&#45;&gt;Red -->
<g id="edge3" class="edge"><title>Refactor&#45;&gt;Red</title>
<path fill="none" stroke="black" d="M201.331,-36.6686C193.856,-44.1438 185.009,-52.9913 176.669,-61.331"/>
<polygon fill="black" stroke="black" points="174.114,-58.9359 169.518,-68.4819 179.064,-63.8857 174.114,-58.9359"/>
</g>
<!-- Begin -->
<g id="node4" class="node"><title>Begin</title>
</g>
<!-- Begin&#45;&gt;Red -->
<g id="edge4" class="edge"><title>Begin&#45;&gt;Red</title>
<path fill="none" stroke="black" d="M7.05957,-90.5C16.9389,-90.5 45.8909,-90.5 74.9602,-90.5"/>
<polygon fill="black" stroke="black" points="75.2163,-94.0001 85.2162,-90.5 75.2162,-87.0001 75.2163,-94.0001"/>
</g>
</g>
</svg>
