<?xml version="1.0" encoding="UTF-8" standalone="no"?>
<!DOCTYPE svg PUBLIC "-//W3C//DTD SVG 1.1//EN"
"http://www.w3.org/Graphics/SVG/1.1/DTD/svg11.dtd">
<!-- Creator: dpic version 2014.Jan.01 option -v for SVG 1.1 -->
<!-- width="746" height="139" -->
<svg
 xmlns="http://www.w3.org/2000/svg" xmlns:xlink="http://www.w3.org/1999/xlink"
 xml:space="preserve"
 style="shape-rendering:geometricPrecision; text-rendering:geometricPrecision;
 image-rendering:optimizeQuality; fill-rule:evenodd; clip-rule:evenodd"
 width="745.5px" height="138px"
 viewBox="0 0 745.5 138"
 font-size="11pt" text-anchor="middle"
 stroke="black" stroke-miterlimit="10" stroke-width="1" fill="none">
<g>
<ellipse cx="34.25" cy="23" rx="33.75" ry="22.5" />
<text stroke-width="0.2pt" fill="black" x="32.285714" y="27.8125">
Sender
</text>
<polygon fill="black"
 points="239.5,23 239.5,24.609612
245.938447,23 239.5,21.390388" />
<line x1="68" y1="23" x2="245.938447" y2="23" />
<text stroke-width="0.2pt" fill="black" x="155.004938" y="17.8125">
Recipient::DoSomething()...
</text>
<rect stroke-dasharray="0.9,0.9"
 x="248" y="0.5" rx="9" ry="9" width="135" height="45" />
<text stroke-width="0.2pt" fill="black" x="313.535714" y="20.9375">
&lt;&lt;interface&gt;&gt;
</text>
<text stroke-width="0.2pt" fill="black" x="313.535714" y="34.6875">
Recipient
</text>
<polygon fill="black"
 points="599.5,23 599.5,24.609612
605.938447,23 599.5,21.390388" />
<line x1="383" y1="23" x2="605.938447" y2="23" />
<text stroke-width="0.2pt" fill="black" x="492.504938" y="17.8125">
...ConcreteRecipient::DoSomething()
</text>
<ellipse cx="675.5" cy="23" rx="67.5" ry="22.5" />
<text stroke-width="0.2pt" fill="black" x="673.535714" y="20.9375">
Concrete
</text>
<text stroke-width="0.2pt" fill="black" x="673.535714" y="34.6875">
Recipient
</text>
<ellipse cx="34.25" cy="113" rx="33.75" ry="22.5" />
<text stroke-width="0.2pt" fill="black" x="32.285714" y="117.8125">
Alarm
</text>
<polygon fill="black"
 points="239.5,113 239.5,114.609612
245.938447,113 239.5,111.390388" />
<line x1="68" y1="113" x2="245.938447" y2="113" />
<text stroke-width="0.2pt" fill="black" x="155.004938" y="107.8125">
Lift::GoToBottomFloor()...
</text>
<rect stroke-dasharray="0.9,0.9"
 x="248" y="90.5" rx="9" ry="9" width="135" height="45" />
<text stroke-width="0.2pt" fill="black" x="313.535714" y="110.9375">
&lt;&lt;interface&gt;&gt;
</text>
<text stroke-width="0.2pt" fill="black" x="313.535714" y="124.6875">
Lift
</text>
<polygon fill="black"
 points="599.5,113 599.5,114.609612
605.938447,113 599.5,111.390388" />
<line x1="383" y1="113" x2="605.938447" y2="113" />
<text stroke-width="0.2pt" fill="black" x="492.504938" y="107.8125">
...AutoLift::GoToBottomFloor()
</text>
<ellipse cx="675.5" cy="113" rx="67.5" ry="22.5" />
<text stroke-width="0.2pt" fill="black" x="673.535714" y="117.8125">
AutoLift
</text>
</g></svg>
