<?xml version="1.0" encoding="UTF-8" standalone="no"?>
<!DOCTYPE svg PUBLIC "-//W3C//DTD SVG 1.1//EN"
 "http://www.w3.org/Graphics/SVG/1.1/DTD/svg11.dtd">
<!-- Generated by graphviz version 2.36.0 (20140111.2315)
 -->
<!-- Title: G Pages: 1 -->
<svg width="653pt" height="185pt"
 viewBox="0.00 0.00 653.22 185.08" xmlns="http://www.w3.org/2000/svg" xmlns:xlink="http://www.w3.org/1999/xlink">
<g id="graph0" class="graph" transform="scale(1 1) rotate(0) translate(4 181.083)">
<title>G</title>
<polygon fill="white" stroke="none" points="-4,4 -4,-181.083 649.216,-181.083 649.216,4 -4,4"/>
<!-- Sender -->
<g id="node1" class="node"><title>Sender</title>
<ellipse fill="none" stroke="black" cx="27.6672" cy="-129.563" rx="18" ry="18"/>
</g>
<!-- square -->
<g id="node3" class="node"><title>square</title>
<polygon fill="none" stroke="black" points="285.123,-161.462 208.123,-129.462 285.123,-97.4621 362.123,-129.462 285.123,-161.462"/>
<polyline fill="none" stroke="black" points="219.205,-134.067 219.205,-124.857 "/>
<polyline fill="none" stroke="black" points="274.042,-102.067 296.205,-102.067 "/>
<polyline fill="none" stroke="black" points="351.042,-124.857 351.042,-134.067 "/>
<polyline fill="none" stroke="black" points="296.205,-156.857 274.042,-156.857 "/>
<text text-anchor="middle" x="285.123" y="-132.662" font-family="Times,serif" font-size="11.00">Recipient</text>
<text text-anchor="middle" x="285.123" y="-120.662" font-family="Times,serif" font-size="11.00">(Interface)</text>
</g>
<!-- Sender&#45;&gt;square -->
<g id="edge1" class="edge"><title>Sender&#45;&gt;square</title>
<path fill="none" stroke="black" d="M45.771,-129.556C77.0728,-129.543 143.224,-129.518 198.065,-129.496"/>
<polygon fill="black" stroke="black" points="198.164,-132.996 208.162,-129.492 198.161,-125.996 198.164,-132.996"/>
<text text-anchor="middle" x="116.271" y="-132.556" font-family="Times,serif" font-size="10.00">Recipient::DoSomething()...</text>
</g>
<!-- Recipient -->
<g id="node2" class="node"><title>Recipient</title>
<ellipse fill="none" stroke="black" cx="599.254" cy="-131.121" rx="45.9239" ry="45.9239"/>
<text text-anchor="middle" x="599.254" y="-134.121" font-family="Times,serif" font-size="10.00">Concrete</text>
<text text-anchor="middle" x="599.254" y="-123.121" font-family="Times,serif" font-size="10.00">Recipient</text>
</g>
<!-- square&#45;&gt;Recipient -->
<g id="edge2" class="edge"><title>square&#45;&gt;Recipient</title>
<path fill="none" stroke="black" d="M361.166,-129.864C417.224,-130.16 492.245,-130.556 542.978,-130.824"/>
<polygon fill="black" stroke="black" points="543.085,-134.325 553.103,-130.878 543.122,-127.325 543.085,-134.325"/>
<text text-anchor="middle" x="454.666" y="-132.864" font-family="Times,serif" font-size="10.00">...ConcreteRecipient::DoSomething()</text>
</g>
<!-- Alarm -->
<g id="node4" class="node"><title>Alarm</title>
<ellipse fill="none" stroke="black" cx="27.6672" cy="-32.6996" rx="27.8353" ry="27.8353"/>
<text text-anchor="middle" x="27.6672" y="-30.1996" font-family="Times,serif" font-size="10.00">Alarm</text>
</g>
<!-- Lift -->
<g id="node6" class="node"><title>Lift</title>
<polygon fill="none" stroke="black" points="285.239,-62.7367 215.239,-32.7367 285.239,-2.73667 355.239,-32.7367 285.239,-62.7367"/>
<polyline fill="none" stroke="black" points="226.269,-37.4637 226.269,-28.0096 "/>
<polyline fill="none" stroke="black" points="274.21,-7.4637 296.269,-7.4637 "/>
<polyline fill="none" stroke="black" points="344.21,-28.0096 344.21,-37.4637 "/>
<polyline fill="none" stroke="black" points="296.269,-58.0096 274.21,-58.0096 "/>
<text text-anchor="middle" x="285.239" y="-35.7367" font-family="Times,serif" font-size="10.00">Lift</text>
<text text-anchor="middle" x="285.239" y="-24.7367" font-family="Times,serif" font-size="10.00">(Interface)</text>
</g>
<!-- Alarm&#45;&gt;Lift -->
<g id="edge3" class="edge"><title>Alarm&#45;&gt;Lift</title>
<path fill="none" stroke="black" d="M55.7222,-32.7036C91.2929,-32.7087 154.12,-32.7178 205.058,-32.7251"/>
<polygon fill="black" stroke="black" points="205.075,-36.225 215.076,-32.7266 205.077,-29.225 205.075,-36.225"/>
<text text-anchor="middle" x="120.722" y="-35.7036" font-family="Times,serif" font-size="10.00">Lift::GoToBottomFloor()...</text>
</g>
<!-- AutoLift -->
<g id="node5" class="node"><title>AutoLift</title>
<ellipse fill="none" stroke="black" cx="599.408" cy="-34.1425" rx="34.2855" ry="34.2855"/>
<text text-anchor="middle" x="599.408" y="-31.6425" font-family="Times,serif" font-size="10.00">AutoLift</text>
</g>
<!-- Lift&#45;&gt;AutoLift -->
<g id="edge4" class="edge"><title>Lift&#45;&gt;AutoLift</title>
<path fill="none" stroke="black" d="M354.574,-33.0469C415.603,-33.32 502.65,-33.7095 554.835,-33.943"/>
<polygon fill="black" stroke="black" points="555.089,-37.4441 565.104,-33.989 555.12,-30.4441 555.089,-37.4441"/>
<text text-anchor="middle" x="431.574" y="-36.0469" font-family="Times,serif" font-size="10.00">...AutoLift::GoToBottomFloor()</text>
</g>
</g>
</svg>
