<?xml version="1.0" encoding="UTF-8" standalone="no"?>
<!DOCTYPE svg PUBLIC "-//W3C//DTD SVG 1.1//EN"
 "http://www.w3.org/Graphics/SVG/1.1/DTD/svg11.dtd">
<!-- Generated by graphviz version 2.38.0 (20140413.2041)
 -->
<!-- Title: G Pages: 1 -->
<svg width="661pt" height="188pt"
 viewBox="0.00 0.00 661.34 188.31" xmlns="http://www.w3.org/2000/svg" xmlns:xlink="http://www.w3.org/1999/xlink">
<g id="graph0" class="graph" transform="scale(1 1) rotate(0) translate(319.43 105.244)">
<title>G</title>
<polygon fill="white" stroke="none" points="-319.43,83.0642 -319.43,-105.244 341.91,-105.244 341.91,83.0642 -319.43,83.0642"/>
<!-- Sender -->
<g id="node1" class="node"><title>Sender</title>
<ellipse fill="none" stroke="black" cx="-284.231" cy="-52.1987" rx="31.3996" ry="31.3996"/>
<text text-anchor="middle" x="-284.231" y="-49.6987" font-family="Times,serif" font-size="10.00">Sender</text>
</g>
<!-- square -->
<g id="node3" class="node"><title>square</title>
<polygon fill="none" stroke="black" points="-24.5603,-84.0883 -101.56,-52.0883 -24.5603,-20.0883 52.4397,-52.0883 -24.5603,-84.0883"/>
<polyline fill="none" stroke="black" points="-90.4791,-56.6934 -90.4791,-47.4831 "/>
<polyline fill="none" stroke="black" points="-35.6415,-24.6934 -13.4791,-24.6934 "/>
<polyline fill="none" stroke="black" points="41.3585,-47.4831 41.3585,-56.6934 "/>
<polyline fill="none" stroke="black" points="-13.4791,-79.4831 -35.6415,-79.4831 "/>
<text text-anchor="middle" x="-24.5603" y="-55.2883" font-family="Times,serif" font-size="11.00">Recipient</text>
<text text-anchor="middle" x="-24.5603" y="-43.2883" font-family="Times,serif" font-size="11.00">(Interface)</text>
</g>
<!-- Sender&#45;&gt;square -->
<g id="edge1" class="edge"><title>Sender&#45;&gt;square</title>
<path fill="none" stroke="black" d="M-252.908,-52.1854C-218.151,-52.1706 -160.543,-52.1461 -111.887,-52.1254"/>
<polygon fill="black" stroke="black" points="-111.65,-55.6254 -101.652,-52.1211 -111.653,-48.6254 -111.65,-55.6254"/>
<text text-anchor="middle" x="-181.908" y="-55.1854" font-family="Times,serif" font-size="10.00">Recipient::DoSomething()...</text>
</g>
<!-- Recipient -->
<g id="node2" class="node"><title>Recipient</title>
<ellipse fill="none" stroke="black" cx="290.534" cy="-53.8679" rx="47.2526" ry="47.2526"/>
<text text-anchor="middle" x="290.534" y="-56.8679" font-family="Times,serif" font-size="10.00">Concrete</text>
<text text-anchor="middle" x="290.534" y="-45.8679" font-family="Times,serif" font-size="10.00">Recipient</text>
</g>
<!-- square&#45;&gt;Recipient -->
<g id="edge2" class="edge"><title>square&#45;&gt;Recipient</title>
<path fill="none" stroke="black" d="M51.7152,-52.5191C107.435,-52.8338 181.83,-53.254 232.691,-53.5412"/>
<polygon fill="black" stroke="black" points="232.835,-57.042 242.854,-53.5986 232.874,-50.0421 232.835,-57.042"/>
<text text-anchor="middle" x="146.215" y="-55.5191" font-family="Times,serif" font-size="10.00">...ConcreteRecipient::DoSomething()</text>
</g>
<!-- Alarm -->
<g id="node4" class="node"><title>Alarm</title>
<ellipse fill="none" stroke="black" cx="-284.231" cy="45.8762" rx="27.8353" ry="27.8353"/>
<text text-anchor="middle" x="-284.231" y="48.3762" font-family="Times,serif" font-size="10.00">Alarm</text>
</g>
<!-- Lift -->
<g id="node6" class="node"><title>Lift</title>
<polygon fill="none" stroke="black" points="-24.4304,15.836 -95.4304,45.836 -24.4304,75.836 46.5696,45.836 -24.4304,15.836"/>
<polyline fill="none" stroke="black" points="-84.3767,41.1654 -84.3767,50.5066 "/>
<polyline fill="none" stroke="black" points="-35.4842,71.1654 -13.3767,71.1654 "/>
<polyline fill="none" stroke="black" points="35.5158,50.5066 35.5158,41.1654 "/>
<polyline fill="none" stroke="black" points="-13.3767,20.5066 -35.4842,20.5066 "/>
<text text-anchor="middle" x="-24.4304" y="42.836" font-family="Times,serif" font-size="10.00">Lift</text>
<text text-anchor="middle" x="-24.4304" y="53.836" font-family="Times,serif" font-size="10.00">(Interface)</text>
</g>
<!-- Alarm&#45;&gt;Lift -->
<g id="edge3" class="edge"><title>Alarm&#45;&gt;Lift</title>
<path fill="none" stroke="black" d="M-256.428,45.8719C-220.716,45.8664 -157.194,45.8566 -105.637,45.8486"/>
<polygon fill="black" stroke="black" points="-105.498,42.3487 -95.4972,45.847 -105.497,49.3487 -105.498,42.3487"/>
<text text-anchor="middle" x="-188.928" y="42.8719" font-family="Times,serif" font-size="10.00">Lift::GoToBottomFloor()...</text>
</g>
<!-- AutoLift -->
<g id="node5" class="node"><title>AutoLift</title>
<ellipse fill="none" stroke="black" cx="290.707" cy="44.3331" rx="34.9638" ry="34.9638"/>
<text text-anchor="middle" x="290.707" y="46.8331" font-family="Times,serif" font-size="10.00">AutoLift</text>
</g>
<!-- Lift&#45;&gt;AutoLift -->
<g id="edge4" class="edge"><title>Lift&#45;&gt;AutoLift</title>
<path fill="none" stroke="black" d="M45.9003,45.5006C106.826,45.21 193.162,44.7983 245.355,44.5494"/>
<polygon fill="black" stroke="black" points="245.619,41.0482 255.636,44.5003 245.653,48.0481 245.619,41.0482"/>
<text text-anchor="middle" x="125.4" y="42.5006" font-family="Times,serif" font-size="10.00">...AutoLift::GoToBottomFloor()</text>
</g>
</g>
</svg>
