<?xml version="1.0" encoding="UTF-8" standalone="no"?>
<!DOCTYPE svg PUBLIC "-//W3C//DTD SVG 1.1//EN"
 "http://www.w3.org/Graphics/SVG/1.1/DTD/svg11.dtd">
<!-- Generated by graphviz version 2.38.0 (20140413.2041)
 -->
<!-- Title: G Pages: 1 -->
<svg width="400pt" height="426pt"
 viewBox="0.00 0.00 400.07 425.81" xmlns="http://www.w3.org/2000/svg" xmlns:xlink="http://www.w3.org/1999/xlink">
<g id="graph0" class="graph" transform="scale(1 1) rotate(0) translate(227.825 191.392)">
<title>G</title>
<polygon fill="white" stroke="none" points="-227.825,234.414 -227.825,-191.392 172.244,-191.392 172.244,234.414 -227.825,234.414"/>
<!-- o1 -->
<g id="node1" class="node"><title>o1</title>
<ellipse fill="none" stroke="black" cx="-123.658" cy="0.519655" rx="18" ry="18"/>
</g>
<!-- o3 -->
<g id="node3" class="node"><title>o3</title>
<ellipse fill="none" stroke="black" cx="-49.9029" cy="-39.6822" rx="18" ry="18"/>
</g>
<!-- o1&#45;&gt;o3 -->
<g id="edge1" class="edge"><title>o1&#45;&gt;o3</title>
<path fill="none" stroke="black" d="M-107.654,-8.20355C-98.0859,-13.419 -85.7221,-20.1582 -74.8907,-26.0621"/>
<polygon fill="black" stroke="black" points="-76.3309,-29.2632 -65.8754,-30.976 -72.9807,-23.1169 -76.3309,-29.2632"/>
</g>
<!-- o2 -->
<g id="node2" class="node"><title>o2</title>
<ellipse fill="none" stroke="black" cx="-100.739" cy="-105.068" rx="18" ry="18"/>
</g>
<!-- o13 -->
<g id="node13" class="node"><title>o13</title>
</g>
<!-- o2&#45;&gt;o13 -->
<g id="edge14" class="edge"><title>o2&#45;&gt;o13</title>
<path fill="none" stroke="black" stroke-dasharray="5,2" d="M-111.029,-120.312C-115.891,-127.514 -121.821,-136.3 -127.313,-144.436"/>
<polygon fill="black" stroke="black" points="-130.336,-142.659 -133.03,-152.905 -124.534,-146.575 -130.336,-142.659"/>
</g>
<!-- o3&#45;&gt;o2 -->
<g id="edge2" class="edge"><title>o3&#45;&gt;o2</title>
<path fill="none" stroke="black" d="M-61.1851,-54.1934C-67.635,-62.4893 -75.8656,-73.0754 -83.1468,-82.4405"/>
<polygon fill="black" stroke="black" points="-86.1136,-80.5541 -89.4884,-90.5971 -80.5873,-84.8507 -86.1136,-80.5541"/>
</g>
<!-- o7 -->
<g id="node7" class="node"><title>o7</title>
<ellipse fill="none" stroke="black" cx="19.0917" cy="12.659" rx="18" ry="18"/>
</g>
<!-- o3&#45;&gt;o7 -->
<g id="edge3" class="edge"><title>o3&#45;&gt;o7</title>
<path fill="none" stroke="black" d="M-35.2709,-28.582C-26.1236,-21.6426 -14.1494,-12.5586 -3.76799,-4.68296"/>
<polygon fill="black" stroke="black" points="-1.37074,-7.25757 4.48078,1.57479 -5.6015,-1.68074 -1.37074,-7.25757"/>
</g>
<!-- o4 -->
<g id="node4" class="node"><title>o4</title>
<ellipse fill="none" stroke="black" cx="-1.51541" cy="-108.718" rx="18" ry="18"/>
</g>
<!-- o4&#45;&gt;o3 -->
<g id="edge4" class="edge"><title>o4&#45;&gt;o3</title>
<path fill="none" stroke="black" d="M-12.0148,-93.7387C-18.2921,-84.7825 -26.4035,-73.2097 -33.5095,-63.0713"/>
<polygon fill="black" stroke="black" points="-30.8183,-60.8128 -39.424,-54.6328 -36.5505,-64.8306 -30.8183,-60.8128"/>
</g>
<!-- o5 -->
<g id="node5" class="node"><title>o5</title>
<ellipse fill="none" stroke="black" cx="76.2351" cy="-114.227" rx="18" ry="18"/>
</g>
<!-- o5&#45;&gt;o4 -->
<g id="edge5" class="edge"><title>o5&#45;&gt;o4</title>
<path fill="none" stroke="black" d="M58.2021,-112.949C48.8488,-112.287 37.2102,-111.462 26.6986,-110.717"/>
<polygon fill="black" stroke="black" points="26.9115,-107.224 16.6891,-110.008 26.4167,-114.206 26.9115,-107.224"/>
</g>
<!-- o6 -->
<g id="node6" class="node"><title>o6</title>
<ellipse fill="none" stroke="black" cx="89.829" cy="-38.5905" rx="18" ry="18"/>
</g>
<!-- o6&#45;&gt;o5 -->
<g id="edge6" class="edge"><title>o6&#45;&gt;o5</title>
<path fill="none" stroke="black" d="M86.6074,-56.5153C84.9991,-65.4638 83.0175,-76.4898 81.2186,-86.4985"/>
<polygon fill="black" stroke="black" points="77.7577,-85.9692 79.4335,-96.4307 84.6473,-87.2075 77.7577,-85.9692"/>
</g>
<!-- o7&#45;&gt;o6 -->
<g id="edge7" class="edge"><title>o7&#45;&gt;o6</title>
<path fill="none" stroke="black" d="M33.7485,2.04008C43.3279,-4.90027 56.0372,-14.1082 66.9344,-22.0033"/>
<polygon fill="black" stroke="black" points="65.0394,-24.9524 75.1909,-27.9852 69.1464,-19.2838 65.0394,-24.9524"/>
</g>
<!-- o8 -->
<g id="node8" class="node"><title>o8</title>
<ellipse fill="none" stroke="black" cx="8.80034" cy="105.541" rx="18" ry="18"/>
</g>
<!-- o7&#45;&gt;o8 -->
<g id="edge8" class="edge"><title>o7&#45;&gt;o8</title>
<path fill="none" stroke="black" d="M17.1074,30.5675C15.6362,43.8453 13.6021,62.2033 11.915,77.4299"/>
<polygon fill="black" stroke="black" points="15.3937,77.8165 10.8136,87.3702 8.43628,77.0456 15.3937,77.8165"/>
</g>
<!-- o11 -->
<g id="node11" class="node"><title>o11</title>
<ellipse fill="none" stroke="black" cx="86.6164" cy="62.1704" rx="18" ry="18"/>
</g>
<!-- o7&#45;&gt;o11 -->
<g id="edge9" class="edge"><title>o7&#45;&gt;o11</title>
<path fill="none" stroke="black" d="M33.7435,23.4023C42.5036,29.8254 53.823,38.1252 63.7394,45.3962"/>
<polygon fill="black" stroke="black" points="65.9983,42.7124 71.9931,51.4481 61.8591,48.3575 65.9983,42.7124"/>
</g>
<!-- o9 -->
<g id="node9" class="node"><title>o9</title>
<ellipse fill="none" stroke="black" cx="78.6596" cy="141.822" rx="18" ry="18"/>
</g>
<!-- o8&#45;&gt;o9 -->
<g id="edge10" class="edge"><title>o8&#45;&gt;o9</title>
<path fill="none" stroke="black" d="M25.0031,113.955C33.4675,118.351 44.015,123.829 53.5128,128.762"/>
<polygon fill="black" stroke="black" points="55.2833,125.737 62.5448,133.452 52.057,131.95 55.2833,125.737"/>
</g>
<!-- o14 -->
<g id="node14" class="node"><title>o14</title>
</g>
<!-- o9&#45;&gt;o14 -->
<g id="edge15" class="edge"><title>o9&#45;&gt;o14</title>
<path fill="none" stroke="black" stroke-dasharray="5,2" d="M85.4524,158.551C88.7106,166.575 92.6955,176.389 96.367,185.432"/>
<polygon fill="black" stroke="black" points="99.6595,184.237 100.179,194.819 93.1737,186.871 99.6595,184.237"/>
</g>
<!-- o10 -->
<g id="node10" class="node"><title>o10</title>
<ellipse fill="none" stroke="black" cx="150.244" cy="12.1191" rx="18" ry="18"/>
</g>
<!-- o10&#45;&gt;o6 -->
<g id="edge11" class="edge"><title>o10&#45;&gt;o6</title>
<path fill="none" stroke="black" d="M136.231,0.357846C128.911,-5.78636 119.79,-13.4426 111.576,-20.3369"/>
<polygon fill="black" stroke="black" points="109.175,-17.7831 103.765,-26.893 113.675,-23.1448 109.175,-17.7831"/>
</g>
<!-- o11&#45;&gt;o9 -->
<g id="edge12" class="edge"><title>o11&#45;&gt;o9</title>
<path fill="none" stroke="black" d="M84.8109,80.2445C83.8241,90.1228 82.58,102.577 81.4693,113.695"/>
<polygon fill="black" stroke="black" points="84.9347,114.216 80.458,123.819 77.9694,113.521 84.9347,114.216"/>
</g>
<!-- o11&#45;&gt;o10 -->
<g id="edge13" class="edge"><title>o11&#45;&gt;o10</title>
<path fill="none" stroke="black" d="M101.054,50.813C108.946,44.6056 118.894,36.7798 127.776,29.793"/>
<polygon fill="black" stroke="black" points="125.839,26.8634 135.863,23.4316 130.167,32.3652 125.839,26.8634"/>
</g>
<!-- o12 -->
<g id="node12" class="node"><title>o12</title>
</g>
<!-- o12&#45;&gt;o1 -->
<g id="edge16" class="edge"><title>o12&#45;&gt;o1</title>
<path fill="none" stroke="black" stroke-dasharray="5,2" d="M-173.272,19.4479C-165.952,16.6553 -157.831,13.5572 -150.316,10.6899"/>
<polygon fill="black" stroke="black" points="-151.493,7.39295 -140.902,7.09845 -148.997,13.9331 -151.493,7.39295"/>
</g>
</g>
</svg>
